<?xml version="1.0" encoding="UTF-8"?><svg id="Layer_1" xmlns="http://www.w3.org/2000/svg" viewBox="0 0 116 83.5"><circle cx="94.13" cy="39.44" r="18.14" style="fill:none; stroke:#373737; stroke-miterlimit:10; stroke-width:7px;"/><path d="M53.9,77.98l-3.35-2.33-3.25,2.46c-1.15.87-2.75-.24-2.33-1.62l1.19-3.9-3.35-2.33c-1.19-.83-.62-2.69.83-2.72l4.08-.08,1.19-3.9c.42-1.38,2.37-1.42,2.84-.06l1.34,3.86,4.08-.08c1.45-.03,2.08,1.81.93,2.68l-3.25,2.46,1.34,3.86c.47,1.37-1.08,2.54-2.27,1.71Z" style="fill:none; stroke:#373737; stroke-miterlimit:10; stroke-width:7px;"/><line x1="3.73" y1="17.19" x2="50.04" y2="39.28" style="fill:none; stroke:#373737; stroke-miterlimit:10; stroke-width:7px;"/><line x1="37.93" y1="5.08" x2="15.83" y2="51.39" style="fill:none; stroke:#373737; stroke-miterlimit:10; stroke-width:7px;"/></svg>