<?xml version="1.0" encoding="UTF-8"?><svg id="Layer_1" xmlns="http://www.w3.org/2000/svg" viewBox="0 0 114 58"><path d="M47.99,33.08c-1.2-.68-2.32-1.29-3.43-1.94-2.37-1.38-3.31-3.74-2.46-6.1.86-2.38,3.02-3.57,5.75-3.22,1.03.13,2.07.15,3.26.23.25-1.3.47-2.49.71-3.68.48-2.41,2.23-4,4.54-4.15,2.41-.16,4.35,1.25,5.1,3.67.41,1.33.45,3.16,1.35,3.85.81.61,2.57-.08,3.92-.13,2.64-.1,4.53,1.18,5.23,3.49.69,2.26-.23,4.43-2.47,5.81-.99.61-1.99,1.2-3.11,1.87.58,1.29,1.16,2.5,1.67,3.73.93,2.24.33,4.65-1.45,5.99-1.79,1.35-4.3,1.33-6.17-.13-1.06-.82-2.05-1.75-3.14-2.68-1.05.97-2,1.94-3.03,2.79-2.01,1.64-4.38,1.71-6.29.25-1.82-1.38-2.44-3.67-1.55-5.97.46-1.19,1-2.36,1.57-3.69Z" style="fill:#373737;"/></svg>