<?xml version="1.0" encoding="UTF-8"?><svg id="Layer_1" xmlns="http://www.w3.org/2000/svg" viewBox="0 0 122 21"><polygon points="86.83 .28 90.5 6.71 97.76 8.22 92.77 13.7 93.58 21.07 86.83 18.02 80.07 21.07 80.88 13.7 75.9 8.22 83.15 6.71 86.83 .28" style="fill:#e6e6e6;"/><polygon points="62.24 .28 65.91 6.71 73.16 8.22 68.18 13.7 68.99 21.07 62.24 18.02 55.48 21.07 56.29 13.7 51.31 8.22 58.56 6.71 62.24 .28" style="fill:#e6e6e6;"/><polygon points="37.64 .28 41.32 6.71 48.57 8.22 43.59 13.7 44.4 21.07 37.64 18.02 30.89 21.07 31.7 13.7 26.71 8.22 33.97 6.71 37.64 .28" style="fill:#e6e6e6;"/><polygon points="111.42 .28 115.09 6.71 122.35 8.22 117.37 13.7 118.17 21.07 111.42 18.02 104.67 21.07 105.47 13.7 100.49 8.22 107.74 6.71 111.42 .28" style="fill:#e6e6e6;"/><polygon points="13.05 .28 16.73 6.71 23.98 8.22 19 13.7 19.8 21.07 13.05 18.02 6.3 21.07 7.1 13.7 2.12 8.22 9.38 6.71 13.05 .28" style="fill:#e6cd8c;"/></svg>