<?xml version="1.0" encoding="UTF-8"?><svg id="Layer_1" xmlns="http://www.w3.org/2000/svg" viewBox="0 0 120 21"><polygon points="84.83 .26 88.5 6.69 95.76 8.2 90.77 13.68 91.58 21.05 84.83 18.01 78.07 21.05 78.88 13.68 73.9 8.2 81.15 6.69 84.83 .26" style="fill:#e6e6e6;"/><polygon points="60.24 .26 63.91 6.69 71.16 8.2 66.18 13.68 66.99 21.05 60.24 18.01 53.48 21.05 54.29 13.68 49.31 8.2 56.56 6.69 60.24 .26" style="fill:#e6e6e6;"/><polygon points="35.64 .26 39.32 6.69 46.57 8.2 41.59 13.68 42.4 21.05 35.64 18.01 28.89 21.05 29.7 13.68 24.71 8.2 31.97 6.69 35.64 .26" style="fill:#e6cd8c;"/><polygon points="109.42 .26 113.09 6.69 120.35 8.2 115.37 13.68 116.17 21.05 109.42 18.01 102.67 21.05 103.47 13.68 98.49 8.2 105.74 6.69 109.42 .26" style="fill:#e6e6e6;"/><polygon points="11.05 .26 14.73 6.69 21.98 8.2 17 13.68 17.8 21.05 11.05 18.01 4.3 21.05 5.1 13.68 .12 8.2 7.38 6.69 11.05 .26" style="fill:#e6cd8c;"/></svg>