<?xml version="1.0" encoding="UTF-8"?><svg id="Layer_1" xmlns="http://www.w3.org/2000/svg" viewBox="0 0 122 21"><polygon points="86.83 .23 90.5 6.66 97.76 8.17 92.77 13.65 93.58 21.02 86.83 17.97 80.07 21.02 80.88 13.65 75.9 8.17 83.15 6.66 86.83 .23" style="fill:#e6cd8c;"/><polygon points="62.24 .23 65.91 6.66 73.16 8.17 68.18 13.65 68.99 21.02 62.24 17.97 55.48 21.02 56.29 13.65 51.31 8.17 58.56 6.66 62.24 .23" style="fill:#e6cd8c;"/><polygon points="37.64 .23 41.32 6.66 48.57 8.17 43.59 13.65 44.4 21.02 37.64 17.97 30.89 21.02 31.7 13.65 26.71 8.17 33.97 6.66 37.64 .23" style="fill:#e6cd8c;"/><polygon points="111.42 .23 115.09 6.66 122.35 8.17 117.37 13.65 118.17 21.02 111.42 17.97 104.67 21.02 105.47 13.65 100.49 8.17 107.74 6.66 111.42 .23" style="fill:#e6e6e6;"/><polygon points="13.05 .23 16.73 6.66 23.98 8.17 19 13.65 19.8 21.02 13.05 17.97 6.3 21.02 7.1 13.65 2.12 8.17 9.38 6.66 13.05 .23" style="fill:#e6cd8c;"/></svg>