<?xml version="1.0" encoding="UTF-8"?><svg id="Layer_1" xmlns="http://www.w3.org/2000/svg" viewBox="0 0 120 21"><polygon points="84.83 .21 88.5 6.65 95.76 8.15 90.77 13.64 91.58 21 84.83 17.96 78.07 21 78.88 13.64 73.9 8.15 81.15 6.65 84.83 .21" style="fill:#e6cd8c;"/><polygon points="60.24 .21 63.91 6.65 71.16 8.15 66.18 13.64 66.99 21 60.24 17.96 53.48 21 54.29 13.64 49.31 8.15 56.56 6.65 60.24 .21" style="fill:#e6cd8c;"/><polygon points="35.64 .21 39.32 6.65 46.57 8.15 41.59 13.64 42.4 21 35.64 17.96 28.89 21 29.7 13.64 24.71 8.15 31.97 6.65 35.64 .21" style="fill:#e6cd8c;"/><polygon points="109.42 .21 113.09 6.65 120.35 8.15 115.37 13.64 116.17 21 109.42 17.96 102.67 21 103.47 13.64 98.49 8.15 105.74 6.65 109.42 .21" style="fill:#e6cd8c;"/><polygon points="11.05 .21 14.73 6.65 21.98 8.15 17 13.64 17.8 21 11.05 17.96 4.3 21 5.1 13.64 .12 8.15 7.38 6.65 11.05 .21" style="fill:#e6cd8c;"/></svg>